# xmcd
#
# Track frame offsets:
#	183
#	20600
#	38100
#	54028
#	78458
#	94733
#	110085
#	127358
#	143060
#	161600
#
# Disc length: 2427 seconds
#
# Revision: 7
# Processed by: cddbd v1.5.2PL0 Copyright (c) Steve Scherf et al.
# Submitted via: EasyCDDAExtractor 15.3.0.1
#
DISCID=8309790a
DTITLE=Ricardo Montaner
DYEAR=1987
DGENRE=Latin
TTITLE0=Uno Del Otro
TTITLE1=Vamos A Dejarlo
TTITLE2=Necesito De Ti
TTITLE3=Yo Que Te Ame
TTITLE4=Dame Una Mañana
TTITLE5=Ojos Negros
TTITLE6=Extraño Sentimiento
TTITLE7=No Me Quites Tu Amor
TTITLE8=Afortunados
TTITLE9=En Ti
EXTD=sono-rodven, 1987\nCD-073 YEAR: 1986
EXTT0=juliette greco
EXTT1=lues mariano
EXTT2=tino rossi
EXTT3=josephine baker
EXTT4=gilbert becaud
EXTT5=mouloudhi
EXTT6=jean ferrat
EXTT7=Johnny Tillotson
EXTT8=Instrumental
EXTT9=Paul Anka
PLAYORDER=
